# xmcd
#
# Track frame offsets:
#	150
#	11540
#	21279
#	31666
#	42274
#	56713
#	70192
#	80556
#	90608
#	102151
#	114094
#	129900
#	139421
#	147769
#	156557
#
# Disc length: 2228 seconds
#
# Revision: 0
# Processed by: cddbd v1.5.2PL0 Copyright (c) Steve Scherf et al.
# Submitted via: EasyCDDAExtractor 15.3.0.1
#
DISCID=c208b20f
DTITLE=49 Special - Cornbread Fred's Hideway
DYEAR=2002
DGENRE=Hillbilly
TTITLE0=Cornbread Fred's Hideway
TTITLE1=Jump Jump Honey
TTITLE2=One Way Street
TTITLE3=You've Got To Leave Those Other Guys Alone
TTITLE4=I'm Leavin' (Yes Indeedy)
TTITLE5=I Care No More
TTITLE6=Why Don't You Leave This Town
TTITLE7=So Long
TTITLE8=Slow Poke
TTITLE9=Drowning My Sorrows
TTITLE10=D-Y-N-A-M.I.T.E
TTITLE11=Don't Bother Me
TTITLE12=Who Wouldn't Love You
TTITLE13=I Needed You
TTITLE14=The Way You're Treating Me
EXTD=
EXTT0=
EXTT1=
EXTT2=
EXTT3=
EXTT4=
EXTT5=
EXTT6=
EXTT7=
EXTT8=
EXTT9=
EXTT10=
EXTT11=
EXTT12=
EXTT13=
EXTT14=
PLAYORDER=
